<svg width="103" height="112" viewBox="0 0 103 112" fill="none" xmlns="http://www.w3.org/2000/svg">
<g opacity="0.5">
<path d="M1.53378 90.4189L65.6576 53.917C67.3951 52.9193 69.5259 52.8525 71.3247 53.7387L99.8783 70.0182C101.354 71.0756 101.641 73.1923 100.013 74.1286L36.1321 110.53C34.4242 111.512 32.3287 111.581 30.5589 110.711L2.01009 94.4599C-0.0372165 93.2621 0.0781525 91.3809 1.53378 90.4189Z" fill="#D5D5D5"/>
</g>
<path d="M100.38 63.9073L100.358 63.8943C100.328 63.8709 100.3 63.846 100.269 63.8234L71.7152 47.5439C69.9168 46.6573 67.7861 46.7245 66.0485 47.7221L1.92433 84.2241C1.8123 84.298 1.71103 84.3793 1.61533 84.4637C-0.572575 86.1402 -0.264307 89.6846 2.23594 91.1098L2.27971 91.1328C2.30753 91.1499 2.33127 91.1681 2.35984 91.1848L30.9086 107.436C32.6784 108.305 34.774 108.237 36.4818 107.255L100.363 70.8535C100.485 70.7833 100.593 70.7046 100.693 70.6221C103.119 69.0224 102.96 65.377 100.38 63.9073Z" fill="#FEBD33"/>
<path d="M100.453 63.7826L100.394 63.8829L100.394 63.8826L100.448 63.7815L100.415 63.7544C100.395 63.7384 100.376 63.7221 100.342 63.6987L71.7806 47.4151C69.9299 46.5033 67.759 46.572 65.9721 47.5978L1.84016 84.1046C1.73443 84.1748 1.62797 84.2569 1.52262 84.3501C0.481343 85.1483 -0.0843627 86.4393 0.0102328 87.8032C0.110019 89.2439 0.913877 90.5283 2.164 91.241L2.23003 91.2796C2.2471 91.2911 2.26416 91.3023 2.28382 91.3138L30.8407 107.569C31.6928 107.988 32.6135 108.195 33.5324 108.194C34.5774 108.193 35.6201 107.922 36.555 107.384L100.436 70.9822C100.553 70.9153 100.664 70.8373 100.774 70.7463C101.941 69.9764 102.61 68.6742 102.563 67.2621C102.514 65.808 101.726 64.5076 100.453 63.7826ZM36.0033 99.7962C36.0033 99.7962 36.8562 103.358 36.1862 105.074C35.5211 106.777 33.7847 107.063 33.7572 107.067C32.7693 107.114 31.77 106.917 30.8574 106.468L2.30868 90.2174C2.28011 90.2007 2.25637 90.1828 2.22855 90.1657L2.18478 90.1423C1.23438 89.6005 0.610065 88.7507 0.311448 87.8151C0.310706 87.8043 0.30774 87.7939 0.306993 87.7831C0.219077 86.5166 0.741758 85.3199 1.71292 84.5752C1.81716 84.4835 1.91027 84.4114 1.99744 84.3535L66.1216 47.8512C66.4826 47.6439 66.8632 47.489 67.2508 47.3642C67.9783 47.1752 70.1053 46.8231 72.2569 48.3956C72.4587 48.5431 72.636 48.6724 72.7996 48.7912C72.7821 48.8402 72.7543 48.8881 72.7031 48.9338L36.0033 99.7962Z" fill="#3D3F3F"/>
<path d="M43.7464 102.342L42.7837 102.886C42.5055 103.045 42.2792 102.877 42.2789 102.512C42.2785 102.146 42.5037 101.72 42.7819 101.561L43.7449 101.017C44.0231 100.858 44.2494 101.026 44.2498 101.392C44.2501 101.758 44.0246 102.183 43.7464 102.342Z" fill="#FEBD33"/>
<path d="M42.7804 101.569C42.5022 101.728 42.2766 102.153 42.277 102.519C42.277 102.606 42.3011 102.679 42.3245 102.741C42.366 102.732 42.3987 102.721 42.4439 102.695L43.4069 102.15C43.6852 101.992 43.9103 101.566 43.91 101.2C43.91 101.114 43.8962 101.038 43.8729 100.976C43.8309 100.985 43.7883 100.999 43.743 101.025L42.7804 101.569Z" fill="#E9E9E9"/>
<path d="M42.2769 102.826L42.2546 102.766C42.2298 102.699 42.2027 102.619 42.2027 102.519C42.2023 102.124 42.4394 101.679 42.7428 101.506L43.7058 100.961C43.7526 100.935 43.8019 100.916 43.8568 100.904L43.9202 100.89L43.9425 100.951C43.9699 101.025 43.984 101.108 43.984 101.2C43.9844 101.595 43.7474 102.041 43.4439 102.214L42.4809 102.758C42.4316 102.787 42.3923 102.802 42.3403 102.813L42.2769 102.826ZM42.8174 101.633C42.5599 101.779 42.3511 102.177 42.3515 102.519C42.3515 102.567 42.36 102.61 42.3715 102.65C42.3822 102.645 42.3937 102.639 42.4067 102.631L43.3697 102.087C43.6268 101.94 43.836 101.542 43.8356 101.201C43.8356 101.153 43.8312 101.109 43.8223 101.068C43.8078 101.074 43.7941 101.08 43.7804 101.088L42.8174 101.633Z" fill="#3D3F3F"/>
<path d="M44.1779 102.686C43.8997 102.845 43.6734 102.676 43.6731 102.311C43.6727 101.945 43.8979 101.519 44.1761 101.361C44.4543 101.202 44.6806 101.37 44.681 101.736C44.6813 102.101 44.4562 102.527 44.1779 102.686Z" fill="#FEBD33"/>
<path d="M43.9757 102.834C43.9137 102.834 43.8547 102.819 43.8013 102.789C43.6626 102.71 43.5825 102.536 43.5821 102.312C43.5817 101.912 43.8221 101.461 44.1296 101.285C44.2791 101.2 44.4279 101.19 44.5488 101.259C44.6879 101.338 44.7677 101.512 44.768 101.736C44.7684 102.136 44.5284 102.587 44.2205 102.762C44.1367 102.81 44.0536 102.834 43.9757 102.834ZM44.3745 101.389C44.3181 101.389 44.2624 101.413 44.2194 101.438C43.9701 101.579 43.7602 101.979 43.7605 102.311C43.7609 102.471 43.8084 102.59 43.8907 102.637C43.9712 102.682 44.0658 102.647 44.1311 102.61L44.1315 102.611C44.3804 102.469 44.5904 102.068 44.59 101.737C44.5896 101.579 44.541 101.457 44.4598 101.411C44.4323 101.396 44.403 101.389 44.3745 101.389Z" fill="#3D3F3F"/>
<path d="M43.6878 102.317C43.6874 101.951 43.9126 101.526 44.1908 101.367C44.3091 101.3 44.4171 101.294 44.5031 101.335L44.5039 101.334L44.1548 101.081C44.1444 101.072 44.1266 101.061 44.1151 101.054L44.0836 101.035L44.0587 101.02C43.9704 100.97 43.8818 100.985 43.7564 101.056C43.4782 101.215 43.253 101.641 43.2534 102.006C43.2538 102.184 43.3075 102.314 43.3944 102.383L43.3773 102.368L43.3977 102.387C43.401 102.389 43.4259 102.406 43.4292 102.409L43.8224 102.688C43.7397 102.617 43.6881 102.49 43.6878 102.317Z" fill="#E9E9E9"/>
<path d="M43.7687 102.759L43.3751 102.48C43.3736 102.479 43.3436 102.458 43.3395 102.455L43.328 102.444C43.2211 102.354 43.1629 102.199 43.1625 102.006C43.1622 101.606 43.4022 101.155 43.7101 100.98C43.815 100.921 43.9545 100.862 44.1011 100.944L44.1604 100.98C44.1775 100.99 44.199 101.004 44.212 101.015L44.6107 101.303L44.5495 101.454L44.4631 101.414C44.3819 101.376 44.2936 101.409 44.2339 101.443C43.9846 101.585 43.775 101.985 43.7754 102.317C43.7754 102.456 43.8125 102.564 43.8792 102.621L43.7687 102.759ZM43.4511 102.318L43.4771 102.336L43.604 102.426C43.5995 102.391 43.5969 102.355 43.5969 102.317C43.5966 101.917 43.8369 101.467 44.1445 101.291C44.1745 101.274 44.2046 101.26 44.2346 101.249L44.0999 101.152C44.0866 101.141 44.0755 101.135 44.0677 101.13L44.0098 101.094C43.9742 101.075 43.9263 101.06 43.7995 101.132C43.5502 101.274 43.3402 101.675 43.3406 102.006C43.3406 102.139 43.3755 102.245 43.4363 102.303L43.4515 102.317L43.4511 102.318Z" fill="#3D3F3F"/>
<path d="M45.6428 101.29C45.6425 100.924 45.8676 100.499 46.1458 100.34L49.0282 98.6954C49.1621 98.6189 49.2834 98.62 49.3739 98.6805L48.8965 98.3563L48.8508 98.3255C48.7492 98.2486 48.6246 98.2315 48.4747 98.3173L45.5924 99.9616C45.3142 100.12 45.089 100.546 45.0894 100.912C45.0897 101.089 45.1183 101.198 45.2047 101.268L45.2296 101.289L45.2325 101.291C45.2374 101.295 45.2422 101.298 45.2474 101.301L45.7905 101.673C45.6996 101.605 45.6432 101.472 45.6428 101.29Z" fill="#E9E9E9"/>
<path d="M45.7397 101.748L45.1476 101.338C45.0185 101.234 45.0007 101.072 45.0004 100.914C45 100.514 45.2404 100.063 45.5479 99.888L48.4299 98.2437C48.645 98.1215 48.8067 98.1835 48.905 98.2578L49.424 98.6103L49.4244 98.6107H49.4248L49.3235 98.7555H49.3231C49.24 98.6998 49.1413 98.7347 49.0731 98.7737L46.1908 100.418C45.9415 100.56 45.7315 100.96 45.7319 101.292C45.7323 101.438 45.7734 101.552 45.8447 101.605L45.7397 101.748ZM48.6665 98.3507C48.6261 98.3507 48.5775 98.3626 48.5196 98.3956L45.6373 100.04C45.388 100.182 45.1781 100.583 45.1784 100.914C45.1788 101.072 45.2029 101.155 45.2615 101.202L45.2867 101.223L45.5616 101.412C45.5564 101.374 45.5538 101.334 45.5538 101.292C45.5535 100.892 45.7935 100.441 46.101 100.266L48.9833 98.6214C49.0115 98.6055 49.0397 98.5925 49.0679 98.5817L48.8004 98.4001C48.7674 98.3756 48.7251 98.3507 48.6665 98.3507Z" fill="#3D3F3F"/>
<path d="M49.0298 100.02L46.1474 101.664C45.8692 101.823 45.6429 101.655 45.6426 101.289C45.6422 100.923 45.8674 100.498 46.1456 100.339L49.0279 98.695C49.3061 98.536 49.5324 98.7043 49.5328 99.0701C49.5332 99.4359 49.308 99.8612 49.0298 100.02Z" fill="#FEBD33"/>
<path d="M45.9523 101.815C45.8903 101.815 45.8317 101.8 45.7786 101.77C45.6395 101.69 45.5594 101.516 45.559 101.292C45.5587 100.892 45.7987 100.441 46.1062 100.266L48.9885 98.6215C49.1391 98.536 49.2871 98.5264 49.4081 98.5947C49.5468 98.6738 49.6269 98.8477 49.6273 99.0724C49.6277 99.4727 49.3873 99.9236 49.0798 100.099L46.1975 101.743C46.114 101.79 46.0305 101.815 45.9523 101.815ZM49.2334 98.7255C49.177 98.7255 49.1213 98.7492 49.0783 98.7737L46.196 100.418C45.9467 100.56 45.7367 100.96 45.7371 101.292C45.7375 101.449 45.7861 101.571 45.8673 101.617C45.9485 101.663 46.0431 101.628 46.1081 101.591L48.9904 99.9463C49.2393 99.8044 49.4493 99.4044 49.4489 99.0727C49.4485 98.9127 49.401 98.7938 49.3187 98.747C49.2912 98.7314 49.2623 98.7255 49.2334 98.7255Z" fill="#3D3F3F"/>
<path d="M50.3287 98.5958C50.3284 98.23 50.5539 97.8043 50.8321 97.6457L53.7144 96.0015C53.8484 95.925 53.9693 95.9261 54.0598 95.9866L53.5828 95.6624L53.5368 95.6312C53.4351 95.5543 53.3112 95.5379 53.161 95.6234L50.2787 97.2676C50.0004 97.4262 49.7749 97.8519 49.7753 98.2177C49.7756 98.3949 49.8046 98.5044 49.891 98.5743L49.9155 98.5947L49.9185 98.5966C49.9233 98.6003 49.9285 98.6036 49.9333 98.607L50.4764 98.9795C50.3855 98.9115 50.3291 98.7782 50.3287 98.5958Z" fill="#E9E9E9"/>
<path d="M50.4235 99.0523L49.8318 98.6427C49.7024 98.5383 49.6846 98.3767 49.6842 98.2185C49.6838 97.8185 49.9242 97.368 50.2317 97.1927L53.114 95.548C53.3292 95.4258 53.4909 95.4882 53.5892 95.5625L54.1078 95.915H54.1082L54.0073 96.0598C53.9242 96.0041 53.8252 96.0394 53.7569 96.0784L50.8746 97.7227C50.6253 97.8649 50.4157 98.2646 50.4161 98.5962C50.4165 98.7422 50.4573 98.857 50.5285 98.9101L50.4235 99.0523ZM53.3503 95.655C53.3095 95.655 53.2609 95.6673 53.2034 95.7003L50.3211 97.3446C50.0718 97.4868 49.8622 97.8868 49.8626 98.2185C49.863 98.3764 49.8867 98.4596 49.9453 98.5071L49.9706 98.5279L50.2458 98.7166C50.2406 98.6787 50.2377 98.6382 50.2377 98.5966C50.2373 98.1966 50.4777 97.7461 50.7852 97.5708L53.6675 95.9261C53.6957 95.9102 53.7235 95.8972 53.7517 95.8864L53.4843 95.7044C53.4512 95.6799 53.4086 95.655 53.3503 95.655Z" fill="#3D3F3F"/>
<path d="M53.7138 97.3257L50.8315 98.9699C50.5533 99.1289 50.327 98.961 50.3266 98.5952C50.3263 98.2293 50.5518 97.8037 50.83 97.6451L53.7123 96.0008C53.9906 95.8422 54.2165 96.0101 54.2168 96.376C54.2172 96.7418 53.992 97.1671 53.7138 97.3257Z" fill="#FEBD33"/>
<path d="M50.6292 99.1187C50.5673 99.1187 50.5083 99.1039 50.4553 99.0738C50.3162 98.9947 50.236 98.8208 50.2357 98.5961C50.2353 98.1961 50.4757 97.7456 50.7832 97.5703L53.6655 95.9257C53.8161 95.8402 53.9638 95.8306 54.0847 95.8989C54.2234 95.978 54.3036 96.1519 54.3039 96.3766C54.3043 96.7769 54.0639 97.2278 53.7564 97.4028L50.8744 99.047C50.791 99.0946 50.7075 99.1187 50.6292 99.1187ZM53.9103 96.0297C53.854 96.0297 53.7979 96.0534 53.7549 96.0779L50.8726 97.7222C50.6233 97.8644 50.4137 98.2641 50.4141 98.5958C50.4145 98.7532 50.4631 98.8754 50.5443 98.9215C50.6255 98.9672 50.7198 98.9323 50.7847 98.8951L53.6674 97.2505C53.9163 97.1086 54.1262 96.7086 54.1259 96.3769C54.1259 96.2169 54.0784 96.098 53.9957 96.0512C53.9682 96.036 53.9393 96.0297 53.9103 96.0297Z" fill="#3D3F3F"/>
<path d="M1.87723 84.7401L66.001 48.2381C67.7386 47.2405 69.8694 47.1736 71.6681 48.0598L100.222 64.3393C101.697 65.3968 101.985 67.5134 100.356 68.4498L36.4755 104.851C34.7677 105.834 32.6721 105.902 30.9023 105.032L2.35353 88.7814C0.306228 87.5836 0.421597 85.702 1.87723 84.7401Z" fill="#E9E9E9"/>
<path d="M36.6155 104.496L100.497 68.0945C101.225 67.6759 101.647 67.0051 101.688 66.207C101.715 65.6833 101.573 65.1518 101.295 64.6775C101.07 64.2931 100.756 63.9465 100.37 63.6702L71.8033 47.3825C69.9366 46.4621 67.7521 46.5312 65.9537 47.5638L1.82985 84.0657C1.05901 84.5742 0.636117 85.3133 0.658005 86.0996C0.68286 86.9925 1.26749 87.8178 2.30468 88.4254L30.8598 104.68C31.7044 105.095 32.6411 105.312 33.5737 105.311C34.6383 105.31 35.6907 105.028 36.6155 104.496ZM101.315 66.1884C101.281 66.858 100.923 67.4219 100.309 67.7754L36.4274 104.177C34.7685 105.131 32.7535 105.197 31.0367 104.355L2.49387 88.1071C1.94893 87.788 1.54422 87.407 1.3005 86.991C1.13246 86.7039 1.04083 86.4008 1.0323 86.0899C1.01375 85.4336 1.37544 84.81 2.02498 84.3796L66.1414 47.8824C67.83 46.9127 69.8802 46.8477 71.6256 47.7071L100.166 63.9792C100.913 64.5152 101.356 65.3635 101.315 66.1884Z" fill="#3D3F3F"/>
<path d="M98.0992 64.5424L70.4493 48.9044C69.1892 48.2834 67.6961 48.3305 66.4786 49.0295L6.60184 83.1062C5.58209 83.7799 5.50122 85.0981 6.93571 85.9375L34.5823 101.555C35.8224 102.165 37.2907 102.117 38.4874 101.429L98.1938 67.4228C99.3345 66.7665 99.2807 65.1248 98.0992 64.5424Z" fill="#0C7460"/>
<path d="M14.0436 92.7999L14.0087 92.7802C13.8254 92.6769 13.8473 92.4953 14.058 92.3742C14.2687 92.2532 14.5878 92.2387 14.771 92.3419L14.8059 92.3616C14.9891 92.4649 14.9669 92.6465 14.7565 92.7676C14.5458 92.8886 14.2268 92.9031 14.0436 92.7999Z" fill="#FEBD33"/>
<path d="M21.4303 96.9547L15.0799 93.3817C14.8966 93.2784 14.9185 93.0968 15.1292 92.9757C15.3399 92.8546 15.6589 92.8401 15.8422 92.9434L22.1926 96.5164C22.3758 96.6197 22.3539 96.8013 22.1432 96.9224C21.9329 97.0434 21.6135 97.0579 21.4303 96.9547Z" fill="#FEBD33"/>
<path d="M14.3502 92.7021C14.5227 92.7021 14.6911 92.6594 14.8246 92.5825C14.9793 92.4933 15.0672 92.3659 15.0669 92.2337C15.0665 92.1799 15.0528 92.129 15.0257 92.0829C14.993 92.0272 14.9415 91.9789 14.8732 91.9403L14.8384 91.9206C14.6132 91.7943 14.2393 91.8088 13.987 91.9537C13.8327 92.0424 13.7448 92.1691 13.7451 92.3017C13.7455 92.4209 13.8138 92.5249 13.9388 92.5955L13.974 92.6155C14.0738 92.6716 14.2074 92.7024 14.3502 92.7021ZM14.1109 92.3789L14.0757 92.3593C14.0519 92.3455 14.0341 92.3303 14.026 92.3162C14.0226 92.3106 14.0211 92.3054 14.0211 92.3006C14.0211 92.2753 14.0534 92.2307 14.1265 92.1888C14.2163 92.1372 14.3424 92.1063 14.4637 92.1063C14.5583 92.106 14.6429 92.1238 14.7015 92.1568L14.736 92.1761C14.769 92.1955 14.7912 92.2185 14.7905 92.2348C14.7901 92.2612 14.7579 92.3054 14.6855 92.3466C14.519 92.4432 14.2508 92.4581 14.1109 92.3789Z" fill="#3D3F3F"/>
<path d="M22.2121 96.7392C22.3664 96.65 22.4544 96.5226 22.454 96.3908C22.4536 96.3369 22.4399 96.286 22.4128 96.24C22.3802 96.1843 22.3286 96.1356 22.2604 96.0974L15.91 92.5244C15.6859 92.3981 15.312 92.4122 15.059 92.557C14.9039 92.6462 14.8156 92.7732 14.8164 92.9058C14.8171 93.0246 14.8865 93.1294 15.0108 93.1992L21.3608 96.7722C21.4617 96.8287 21.5923 96.8595 21.7373 96.8591C21.9087 96.8588 22.0771 96.8164 22.2121 96.7392ZM21.498 96.536L15.1473 92.9623C15.1232 92.9489 15.1057 92.9337 15.0976 92.9199C15.0946 92.9147 15.0927 92.9091 15.0927 92.9047C15.0924 92.8787 15.125 92.8341 15.1977 92.7929C15.289 92.7401 15.4121 92.7097 15.5353 92.7097C15.6303 92.7097 15.7145 92.7279 15.7727 92.7609L22.1231 96.3343C22.1557 96.3518 22.1773 96.3744 22.1776 96.3915C22.1776 96.4172 22.145 96.4621 22.0727 96.5037C21.9065 96.5995 21.6383 96.6147 21.498 96.536Z" fill="#3D3F3F"/>
<g opacity="0.397006">
<path d="M42.0921 62.5731C59.4694 55.1849 76.5725 56.2514 80.2602 64.9532C83.9478 73.655 72.833 86.7189 55.4557 94.1072C38.0784 101.495 20.9753 100.429 17.2876 91.7271C13.5999 83.0253 24.7148 69.9614 42.0921 62.5731Z" fill="#6097B0"/>
</g>
<path d="M48.631 9.8001C67.5431 10.1325 82.6005 25.5084 82.263 44.1426C81.9254 62.7769 66.3208 77.6131 47.4087 77.2807C28.4966 76.9483 13.4391 61.5724 13.7767 42.9381C14.1143 24.3039 29.7189 9.46768 48.631 9.8001Z" fill="#18A187"/>
<path d="M82.4363 44.1462C82.0976 62.8462 66.3817 77.7883 47.4028 77.4544C28.4243 77.1205 13.2597 61.6354 13.5983 42.9354C13.937 24.2354 29.6533 9.29335 48.6318 9.62725C67.6106 9.96116 82.7749 25.4462 82.4363 44.1462ZM13.95 42.9417C13.6147 61.4505 28.6243 76.7777 47.4091 77.1079C66.194 77.438 81.7492 62.6487 82.0846 44.1399C82.4199 25.6312 67.4103 10.304 48.6255 9.97378C29.8406 9.6436 14.2853 24.433 13.95 42.9417Z" fill="#3D3F3F"/>
<mask id="mask0_4037_152" style="mask-type:alpha" maskUnits="userSpaceOnUse" x="13" y="9" width="70" height="69">
<path d="M48.6327 9.79991C67.5448 10.1327 82.6023 25.5082 82.2647 44.1425C81.9271 62.7767 66.3225 77.6129 47.4104 77.2805C28.4983 76.9481 13.4409 61.5722 13.7784 42.938C14.116 24.3037 29.7206 9.4675 48.6327 9.79991Z" fill="white"/>
</mask>
<g mask="url(#mask0_4037_152)">
<path d="M56.9736 -58.759C60.622 -59.5687 64.2652 -60.092 67.8811 -60.343C69.8726 -60.4808 71.8519 -60.5359 73.8227 -60.5093C83.308 -60.3935 92.5183 -58.4255 101.005 -54.8821C104.17 -53.5614 107.239 -52.0216 110.179 -50.2744C113.571 -48.2665 116.805 -45.9835 119.837 -43.4545C120.592 -42.8271 121.335 -42.182 122.062 -41.522C122.836 -40.8229 123.59 -40.1081 124.334 -39.3755C134.074 -29.7786 141.244 -17.3449 144.414 -2.99281C145.148 0.331474 145.643 3.65566 145.912 6.9576C146.487 13.9832 146.034 20.9137 144.667 27.5756C143.603 32.7555 141.99 37.7756 139.872 42.5543L139.852 42.6006C138.671 45.2548 137.341 47.8355 135.858 50.3284C135.852 50.3372 135.847 50.3461 135.841 50.355C133.424 54.4319 130.609 58.2775 127.443 61.8209C123.782 65.9268 119.645 69.6361 115.092 72.8523C113.63 73.8917 112.126 74.8758 110.578 75.8011C103.957 79.7918 96.5882 82.7885 88.6284 84.555C86.8785 84.9433 85.1294 85.2668 83.3841 85.5211C78.2391 86.2826 73.122 86.4827 68.0994 86.1637C66.4188 86.0574 64.7525 85.8949 63.0966 85.6767C52.8614 84.3164 43.1317 80.8056 34.4959 75.5194C32.2498 74.1431 30.0763 72.648 27.987 71.0353C22.8023 67.0406 18.1393 62.3445 14.1571 57.0486C13.4631 56.1264 12.7877 55.1848 12.1417 54.2216L12.1372 54.2187C11.9484 53.9488 11.7624 53.6745 11.5836 53.3985C11.2984 52.9674 11.0167 52.5356 10.7452 52.0976C9.85216 50.6872 9.00707 49.2357 8.20871 47.7548C8.07498 47.5107 7.94486 47.2658 7.822 47.0192C6.22054 43.9673 4.82368 40.7748 3.65276 37.4524C3.31061 36.4711 2.98576 35.4822 2.68105 34.4812C2.44448 33.7199 2.22442 32.9473 2.01524 32.1723C1.71267 31.0606 1.43669 29.9315 1.18526 28.7932C0.487037 25.6321 0.00572275 22.4722 -0.273564 19.3322C-0.421355 17.6651 -0.511589 16.0004 -0.542676 14.3455C-0.717292 5.5882 0.68791 -2.96827 3.46002 -10.9801C3.9123 -12.305 4.40641 -13.6125 4.94156 -14.9064C7.94386 -22.2201 12.1103 -29.0126 17.2601 -35.0003C20.3995 -38.648 23.9043 -42.0004 27.7323 -44.9909C27.9393 -45.1548 28.1464 -45.3186 28.3587 -45.476C29.4023 -46.2742 30.4705 -47.0475 31.5604 -47.7914L31.5641 -47.7922C36.7143 -51.3005 42.3769 -54.1924 48.4609 -56.3298C48.4609 -56.3298 48.4609 -56.3298 48.4645 -56.3306C49.1345 -56.5668 49.8032 -56.7912 50.4816 -57.0064L50.4852 -57.0072C52.6013 -57.6822 54.7635 -58.2685 56.9736 -58.759Z" stroke="#3D3F3F" stroke-miterlimit="10"/>
<path d="M51.9329 -21.3458L52.141 -20.9889C52.6883 -20.0419 53.2655 -19.4248 53.8569 -19.1568C54.2499 -18.9779 54.5067 -18.6927 54.6141 -18.3096C54.8898 -17.3366 54.0943 -16.0154 53.8648 -15.6602C55.2401 -13.1327 58.1811 -13.9301 58.3107 -13.9627L58.9079 -14.1333L58.4875 -13.6787C58.4846 -13.6743 57.9497 -13.084 58.0266 -12.4775C58.0633 -12.1738 58.2505 -11.9112 58.5803 -11.6916C58.8835 -11.4889 59.1547 -11.4313 59.4128 -11.519C60.0225 -11.719 60.3453 -12.6501 60.3473 -12.6581L60.4148 -12.8518L60.5966 -12.7515C60.9675 -12.5524 61.527 -12.6006 62.0615 -12.8828C62.905 -13.3325 63.458 -14.2195 63.5362 -15.2598C63.6862 -17.2666 65.449 -18.0801 65.9077 -18.258C66.2752 -21.3284 68.8121 -21.8726 69.2155 -21.9394C71.6481 -23.9206 73.4728 -22.4739 73.8816 -22.0856C74.9781 -22.4393 76.2812 -21.5992 78.0848 -19.3873C79.3981 -17.7777 80.3225 -17.7053 81.0619 -17.6451C81.5525 -17.6096 82.0097 -17.5704 82.383 -17.0676C82.6224 -16.7406 82.7101 -16.395 82.6473 -16.0426C82.539 -15.4482 82.0136 -15.0045 81.7904 -14.8447L82.4886 -11.3721L82.4447 -11.3129C82.4015 -11.2501 81.3534 -9.71308 82.7281 -7.61889C84.1328 -5.47433 82.8433 -4.03204 81.7026 -2.75968C81.5893 -2.63567 81.4768 -2.50803 81.3672 -2.38482C80.2243 -1.07018 81.3227 0.822989 81.3348 0.84313L81.3974 0.954704L81.312 1.04973C81.2934 1.06905 79.2381 3.34682 78.9394 4.8695C78.8495 5.32297 78.6406 5.61651 78.3128 5.75014C77.5899 6.03993 76.5748 5.36789 76.5342 5.33888L76.3822 5.23574L76.4907 5.08997C76.4935 5.08554 76.8394 4.62087 76.722 4.24388C76.6667 4.06223 76.4986 3.92082 76.2303 3.8245C75.3798 3.519 74.4343 5.02178 74.1413 5.623L74.0868 5.73777L73.9613 5.72001C73.9452 5.71598 72.0637 5.47586 71.4482 6.47571C71.3296 6.66175 71.3036 6.85384 71.3601 7.05804C71.5644 7.77699 72.7128 8.38139 72.7253 8.38623L73.4638 8.76983L72.6379 8.71364C72.5606 8.70798 70.7277 8.63582 69.8376 11.4914C69.4593 12.7048 69.805 13.6851 70.762 14.1115C71.5295 14.4544 72.6197 14.3302 73.0728 13.5414C73.0776 13.5289 73.0861 13.5156 73.0953 13.506C73.8787 12.2331 75.8299 12.3931 76.8029 12.5649L75.7116 11.4269L75.704 11.3753C75.6976 11.3463 75.5942 10.6544 76.1572 10.1225C76.8073 9.50288 78.0524 9.37473 79.8484 9.7441C80.1743 9.80863 80.4693 9.8534 80.7353 9.87039C81.4204 8.92735 82.155 8.01896 82.9318 7.14683C83.0309 6.75217 83.1912 6.39337 83.5119 6.12442C83.8963 5.79951 84.0968 5.45079 84.0961 5.0859C84.1041 4.50234 83.6148 4.0596 83.6096 4.05315L83.4637 3.92585L83.6031 3.79983C83.6087 3.79097 84.279 3.15925 84.205 2.47981C84.1688 2.12659 83.9281 1.81118 83.4925 1.54285C81.6662 0.415909 82.4392 -1.59236 82.4497 -1.6137L82.5079 -1.7635L82.664 -1.71071C82.7042 -1.70063 83.6421 -1.42974 84.7397 -2.89785C85.4268 -3.81471 86.3067 -3.85797 86.8766 -3.49778C87.3942 -3.16779 87.7092 -2.44682 87.3134 -1.70869C86.9946 -1.12078 87.4174 -0.617646 87.8619 -0.0851087C88.2706 0.405936 88.6978 0.911892 88.3152 1.43415C87.7857 2.1525 86.815 2.09425 86.3365 2.01036L86.4722 2.57342C86.5483 2.88355 86.7282 3.1478 86.9663 3.3307C88.7295 1.91633 90.6483 0.672766 92.713 -0.375033L93.0755 -0.558181L92.9566 -0.16675C92.6413 0.884321 92.5875 1.72523 92.7964 2.3443C92.9327 2.75512 92.8988 3.1353 92.6959 3.47315C92.1739 4.34575 90.6677 4.66876 90.2506 4.74235C89.353 7.47793 91.9423 9.08191 92.0557 9.14799L92.587 9.47113L91.9683 9.47539C91.9611 9.477 91.3134 9.48771 90.8996 9.83436C90.8643 10.0361 90.7574 10.2234 90.5781 10.3925C90.5513 10.5467 90.5511 10.7179 90.5846 10.9044C90.6413 11.2644 90.7879 11.498 91.022 11.6286C91.203 11.7253 91.4183 11.7535 91.6285 11.7411C92.0821 11.4199 92.6844 11.3242 93.1708 11.5128C93.4496 11.622 93.9141 11.9181 94.0343 12.6862C94.8845 12.9043 95.8198 12.6814 96.5713 12.0735C98.1359 10.8097 99.9354 11.5395 100.378 11.7531C102.864 9.91196 104.997 11.393 105.321 11.6404C108.428 12.0572 108.617 14.3802 108.621 14.9461C109.622 15.5033 109.902 17.0306 109.523 19.8602C109.248 21.9213 109.826 22.6448 110.293 23.2257C110.597 23.6067 110.886 23.9685 110.771 24.5834C110.696 24.9841 110.508 25.2845 110.205 25.481C109.697 25.8107 109.017 25.7296 108.743 25.6763L106.693 28.5651L106.62 28.5775C106.546 28.5864 104.709 28.8726 104.122 31.3111C103.521 33.8059 101.585 33.8517 99.8792 33.8919C99.709 33.8955 99.5423 33.8983 99.3765 33.9047C97.6387 33.9711 97.0073 36.0696 97.0004 36.0902L96.9672 36.2154L96.8384 36.2174C96.8078 36.2166 93.7459 36.2766 92.431 37.1047C92.0398 37.3474 91.6819 37.3965 91.3601 37.2474C90.6533 36.9214 90.4532 35.7224 90.442 35.6716L90.4129 35.488L90.5944 35.4667C90.6025 35.4687 91.1762 35.3983 91.371 35.0585C91.4638 34.8934 91.4536 34.6751 91.3421 34.4109C90.9841 33.5815 89.2424 33.9226 88.6022 34.1218L88.4842 34.1556L88.4086 34.0545C88.3974 34.038 87.2865 32.5012 86.141 32.7365C85.9228 32.7812 85.7641 32.8887 85.6563 33.0723C85.2703 33.717 85.6184 34.9668 85.6209 34.9777L85.8472 35.7792L85.322 35.1391C85.2705 35.0782 84.0708 33.6905 81.3832 34.9983C80.2397 35.5526 79.7632 36.4759 80.104 37.4688C80.3827 38.2663 81.2158 38.9749 82.1004 38.7633L82.1439 38.7536C83.6062 38.4556 84.8226 39.9879 85.3625 40.8149L85.4446 39.2414L85.4773 39.1999C85.4942 39.1734 85.928 38.6245 86.6984 38.6703C87.5991 38.7212 88.5407 39.5427 89.5015 41.1051C90.0891 42.0622 90.6331 42.5803 91.1594 42.6916C91.7324 42.8077 92.2505 42.4341 92.8017 42.0379C93.3665 41.6349 93.9471 41.217 94.6417 41.2986C95.1416 41.3587 95.5313 41.2646 95.7993 41.0149C96.2289 40.6192 96.2157 39.9567 96.2185 39.9522L96.2103 39.7601L96.3991 39.7714C96.4108 39.7727 97.3276 39.8277 97.7714 39.307C98.0049 39.0385 98.0706 38.6474 97.9674 38.1456C97.541 36.0424 99.5325 35.2314 99.5535 35.2229L99.7073 35.1621L99.7743 35.3108C99.7904 35.349 100.237 36.2195 102.058 36.0129C103.193 35.8864 103.83 36.4979 103.954 37.1624C104.068 37.7646 103.761 38.4906 102.949 38.7051C102.302 38.8753 102.226 39.5273 102.139 40.2196C102.063 40.8563 101.983 41.5091 101.347 41.5895C100.458 41.6956 99.8402 40.9467 99.5715 40.5387L99.2529 41.0239C98.8778 41.5977 98.9863 42.3645 99.5061 42.8081L102.354 45.2406L101.634 45.062C101.618 45.0579 99.9235 44.6471 98.5524 45.6854C97.9666 46.1311 97.8227 46.9084 97.6804 47.6586C97.5552 48.3139 97.4409 48.9324 97.0106 49.2219C96.7657 49.3865 96.4549 49.4251 96.0557 49.3388C94.1367 48.9284 92.6212 49.5538 92.1013 50.9697C91.8376 51.6861 92.2573 52.3306 92.7827 52.5752C93.2699 52.8017 93.9494 52.7459 94.392 51.9099C94.7027 51.32 95.2445 51.0019 95.8684 51.0384C96.5002 51.0768 97.0966 51.4881 97.3165 52.0363C97.4368 52.3404 97.5451 52.9514 96.9203 53.6339C96.2641 54.3462 96.4949 55.1505 96.7201 55.9294C96.8844 56.5014 97.0379 57.0415 96.797 57.4828C96.6425 57.7643 96.3415 57.968 95.8797 58.0972C94.0592 58.6154 93.039 56.9559 92.6461 56.1229C92.2239 57.6198 92.3446 59.2167 93.0009 60.881L93.1726 61.3144L92.7643 61.1008C88.1671 58.7182 84.1831 55.3249 81.0955 51.223C81.0621 51.8464 81.007 52.4747 80.9329 53.1034L80.8849 53.5057L80.6216 53.1915C79.9228 52.3504 79.2516 51.8415 78.6215 51.6734C78.2022 51.565 77.9027 51.3273 77.7325 50.9696C77.2949 50.0553 77.8595 48.6181 78.0251 48.2315C76.2453 45.9724 73.4755 47.2528 73.3579 47.3056L72.7977 47.5745L73.1317 47.0554C73.1381 47.0502 73.5672 46.3769 73.3889 45.7929C73.2979 45.5013 73.0692 45.2745 72.7099 45.1109C72.3773 44.9642 72.0975 44.954 71.8591 45.0792C71.2907 45.3803 71.1297 46.3553 71.1276 46.3634L71.0968 46.568L70.8988 46.4978C70.5001 46.362 69.9578 46.5052 69.4767 46.8744C68.7196 47.457 68.3255 48.4267 68.4248 49.4618C68.6125 51.4659 67.0111 52.5629 66.5881 52.8165C66.7459 55.9072 64.336 56.8719 63.947 57.0039C61.8839 59.3671 59.8422 58.2461 59.3709 57.9363C58.3514 58.4668 56.9241 57.8559 54.7735 55.9834C53.2095 54.6157 52.2853 54.6992 51.5441 54.7687C51.0558 54.8125 50.5973 54.8535 50.1483 54.4208C49.8544 54.14 49.7103 53.8146 49.714 53.4525C49.7209 52.8464 50.1647 52.3258 50.3566 52.1273L49.0837 48.8241L49.1144 48.7564C49.1402 48.7012 49.6278 47.6385 48.9924 46.2928C48.8345 46.3697 48.6795 46.4421 48.5208 46.5154L48.1507 46.6812L48.2856 46.2938C48.3814 46.0216 48.457 45.7615 48.5096 45.5178C48.4264 45.3994 48.3252 45.285 48.215 45.1649C46.4706 43.2897 47.4999 41.6504 48.4115 40.2008C48.5018 40.0591 48.5886 39.9181 48.6753 39.7772C49.5825 38.2905 48.1839 36.6047 48.1691 36.589L48.0871 36.4931L48.154 36.3832C48.1625 36.3699 48.6453 35.6125 49.0917 34.673L49.0188 34.7044L48.9776 34.5006C48.8864 34.0873 48.484 33.6938 47.9191 33.4769C47.096 33.1578 46.1528 33.2759 45.3572 33.7872C45.3757 33.8021 45.3845 33.8077 45.3845 33.8077L45.5474 33.9085L45.4325 34.0595C45.4268 34.0683 44.8744 34.8032 45.0607 35.4577C45.1593 35.8009 45.4472 36.0716 45.9227 36.2626C47.91 37.0686 47.4863 39.178 47.483 39.1978L47.4498 39.3572L47.2848 39.333C47.2454 39.3266 46.275 39.2188 45.4377 40.8497C44.9179 41.8701 44.0555 42.0616 43.4352 41.8C42.8655 41.5614 42.4361 40.9077 42.702 40.1148C42.9149 39.4781 42.4144 39.0531 41.8893 38.6031C41.3983 38.1873 40.8978 37.7623 41.1847 37.1852C41.5859 36.3851 42.5512 36.281 43.0419 36.2824L42.8135 35.7475C42.5419 35.1195 41.8452 34.7875 41.1844 34.9798L37.585 36.0148L38.1318 35.5131C38.1375 35.5042 38.3805 35.2792 38.6471 34.8853C37.44 34.8073 36.5908 34.1631 36.3998 34.004C33.3148 33.4607 33.2152 31.1328 33.2353 30.5694C32.2648 29.9787 32.043 28.4575 32.522 25.6856C32.2854 25.5784 32.0364 25.5006 31.7873 25.4228C31.2233 25.2438 30.6885 25.0774 30.454 24.6351C30.3035 24.3491 30.2991 23.985 30.4458 23.5304C30.6972 22.7407 31.2142 22.3103 31.7913 22.0833C31.5486 21.7417 31.3523 21.386 31.4705 20.854C31.5227 20.6257 31.6127 20.4308 31.7385 20.2774C31.1283 19.9756 30.4512 19.7495 29.7172 19.593L29.2589 19.497L29.6657 19.2736C32.1329 17.8969 34.7506 16.8404 37.4528 16.1149C37.82 15.7292 38.162 15.1779 38.3844 14.3947C39.0828 11.9277 41.0204 11.9576 42.7258 11.9858C42.8941 11.9903 43.0615 11.9911 43.229 11.992C44.9674 11.9977 45.6846 9.92575 45.6914 9.90521L45.729 9.78279L45.855 9.78524C45.8856 9.78605 48.9514 9.84685 50.298 9.07636C50.696 8.8473 51.0571 8.81276 51.3697 8.97152C52.0647 9.33054 52.2169 10.5364 52.2245 10.5879L52.2456 10.7696L52.0661 10.7828C52.058 10.7808 51.4832 10.8286 51.2758 11.1636C51.1742 11.3231 51.1735 11.5438 51.2778 11.8096C51.6011 12.6542 53.3544 12.3828 54.0039 12.2082L54.1227 12.178L54.1918 12.2844C54.2022 12.2973 55.2507 13.8783 56.4066 13.6901C56.6272 13.6563 56.7904 13.5517 56.9069 13.3737C57.3159 12.7467 57.0177 11.4821 57.0153 11.4712L56.8215 10.6624L57.321 11.3235C57.3619 11.3714 58.1295 12.3341 59.8933 12.0414C58.6223 10.6923 57.471 9.24817 56.4441 7.73078C56.333 7.74405 56.2123 7.74805 56.0847 7.73835C55.1912 7.65153 54.2795 6.79305 53.3827 5.19353C52.8318 4.21312 52.3136 3.67412 51.7905 3.5431C51.2236 3.40279 50.6898 3.75708 50.1222 4.13027C49.5445 4.5095 48.9438 4.90523 48.2544 4.79591C47.7579 4.71604 47.3649 4.79569 47.0865 5.03242C46.642 5.4125 46.6282 6.07339 46.629 6.07701L46.6264 6.27153L46.4352 6.24933C46.428 6.25094 45.514 6.15727 45.0472 6.66017C44.8042 6.91947 44.7224 7.30648 44.8074 7.81235C45.1468 9.93488 43.126 10.6649 43.1043 10.6697L42.9489 10.7233L42.8891 10.573C42.873 10.5348 42.4608 9.64904 40.6348 9.78066C39.4936 9.86293 38.8854 9.22604 38.7869 8.55585C38.6983 7.9481 39.0321 7.23896 39.8503 7.05351C40.5025 6.90869 40.6068 6.26192 40.7176 5.57568C40.8215 4.94421 40.9278 4.28938 41.5703 4.238C42.4591 4.16613 43.0482 4.94036 43.2996 5.35605L43.6367 4.88573C44.0347 4.32966 43.9552 3.55638 43.4539 3.0935L40.7061 0.547466L41.4215 0.757477C41.4376 0.761515 43.109 1.23838 44.5227 0.255263C45.125 -0.167461 45.3011 -0.936646 45.4747 -1.68247C45.6205 -2.33085 45.7625 -2.94419 46.204 -3.21713C46.455 -3.37172 46.769 -3.3958 47.1633 -3.29703C49.0613 -2.80962 50.5948 -3.37064 51.1751 -4.75431C51.0823 -5.20902 50.9967 -5.66535 50.9257 -6.12489C50.8172 -6.23769 50.6937 -6.33196 50.5614 -6.39764C50.0819 -6.64103 49.4032 -6.61583 48.9296 -5.7996C48.594 -5.21933 48.0393 -4.92508 47.4179 -4.98484C46.7877 -5.05026 46.209 -5.48455 46.0101 -6.04119C45.9034 -6.35213 45.8177 -6.96432 46.4706 -7.62263C47.1522 -8.30631 46.9532 -9.1215 46.7606 -9.9077C46.6217 -10.4853 46.49 -11.0302 46.7449 -11.4595C46.9111 -11.7397 47.2189 -11.9297 47.6884 -12.0416C49.1032 -12.3823 49.9952 -11.4586 50.4908 -10.6256C50.4528 -12.0203 50.4977 -13.4182 50.6335 -14.8173L50.5184 -15.1492L50.6576 -15.0698C50.8679 -17.0444 51.2508 -19.0117 51.8213 -20.956L51.9329 -21.3458Z" fill="#EBEBEB"/>
<path d="M38.33 63.03C39.017 62.1132 39.8969 62.0699 40.4668 62.4301C40.9844 62.7601 41.2994 63.4811 40.9036 64.2192C40.5849 64.8071 41.0076 65.3102 41.4521 65.8427C41.8608 66.3337 42.288 66.8397 41.9054 67.3619C41.3759 68.0803 40.4052 68.022 39.9267 67.9381L40.0624 68.5012C40.1385 68.8113 40.3185 69.0755 40.5565 69.2584C42.3197 67.8441 44.2384 66.6006 46.303 65.5528L46.6655 65.3696L46.5467 65.7611C46.2313 66.8121 46.1775 67.653 46.3864 68.272C46.5227 68.6829 46.4888 69.063 46.2859 69.4009C45.7639 70.2734 44.2578 70.5965 43.8407 70.67C42.9432 73.4056 45.5324 75.0095 45.6458 75.0756L46.1771 75.3987L45.5584 75.403C45.5512 75.4046 44.9035 75.4153 44.4897 75.7619C44.4544 75.9637 44.3475 76.1509 44.1682 76.32C44.1414 76.4743 44.1412 76.6454 44.1748 76.8319C44.2314 77.192 44.3781 77.4256 44.6121 77.5561C44.7931 77.6528 45.0084 77.6811 45.2186 77.6686C45.6722 77.3474 46.2745 77.2517 46.7608 77.4403C47.0396 77.5495 47.5041 77.8456 47.6243 78.6137C48.4745 78.8318 49.4098 78.6089 50.1612 78.001C51.7258 76.7372 53.5252 77.467 53.9677 77.6806C56.4539 75.8395 58.5865 77.3205 58.911 77.5679C62.0173 77.9847 62.2071 80.3077 62.2104 80.8735C63.1982 81.4223 63.4828 82.9181 63.1274 85.6815C52.8912 84.3229 43.1609 80.8138 34.5249 75.5294C35.1515 74.683 35.8179 73.862 36.5221 73.0745C36.6212 72.6798 36.7815 72.321 37.1022 72.0521C37.4866 71.7272 37.6871 71.3785 37.6864 71.0136C37.6944 70.43 37.2051 69.9873 37.1999 69.9809L37.054 69.8536L37.1934 69.7276C37.199 69.7187 37.8692 69.087 37.7953 68.4076C37.7591 68.0544 37.5184 67.739 37.0828 67.4706C35.2566 66.3437 36.0296 64.3355 36.0401 64.3142L36.0982 64.1644L36.2543 64.2172C36.2946 64.2272 37.2324 64.4981 38.33 63.03Z" fill="#EBEBEB"/>
<path d="M27.47 43.8238C28.5666 43.4701 29.8696 44.3102 31.6733 46.5221C32.9866 48.1319 33.9111 48.2042 34.6504 48.2644C35.1411 48.3 35.5983 48.3391 35.9716 48.8419C36.2111 49.169 36.2988 49.5145 36.2359 49.8669C36.1277 50.4614 35.6022 50.9051 35.379 51.0649L36.0772 54.5376L36.0333 54.5968C35.9901 54.6596 34.942 56.1966 36.3167 58.2908C37.7215 60.4354 36.432 61.8777 35.2912 63.1501C35.1779 63.2741 35.0654 63.4018 34.9558 63.525C33.8129 64.8397 34.9113 66.7329 34.9234 66.753L34.986 66.8646L34.9006 66.9596C34.882 66.979 32.8266 69.2568 32.528 70.7795C32.438 71.2329 32.2291 71.5265 31.9013 71.6601C31.1784 71.9499 30.1633 71.2779 30.1227 71.2489L29.9707 71.1457L30.0791 70.9999C30.082 70.9955 30.4279 70.5308 30.3105 70.1538C30.2552 69.9722 30.0871 69.8308 29.8187 69.7344C29.1581 69.4971 28.4357 70.3571 28.0138 71.0288C22.8289 67.035 18.1657 62.3398 14.1837 57.0446C13.4897 56.1226 12.8143 55.1812 12.1683 54.218C12.4715 54.4207 12.7428 54.4783 13.0009 54.3906C13.6106 54.1906 13.9334 53.2595 13.9354 53.2515L14.0029 53.0578L14.1847 53.1581C14.5556 53.3572 15.1151 53.309 15.6497 53.0268C16.4931 52.5771 17.0461 51.69 17.1244 50.6498C17.2743 48.6429 19.0372 47.8294 19.4959 47.6515C19.8634 44.5811 22.4004 44.0368 22.8038 43.97C25.2364 41.9887 27.0612 43.4355 27.47 43.8238Z" fill="#EBEBEB"/>
<path d="M15.7489 23.2453C16.8396 23.5887 17.1754 24.4039 17.0204 25.0619C16.8787 25.6598 16.3065 26.2013 15.4792 26.0694C14.8169 25.9617 14.4861 26.5294 14.1239 27.127C13.7972 27.6786 13.462 28.2435 12.8477 28.0605C11.9915 27.7981 11.7319 26.8633 11.648 26.3801L11.1631 26.6969C10.5874 27.068 10.376 27.8146 10.6714 28.4296L12.2951 31.8068L11.7088 31.3552C11.6948 31.3431 10.3124 30.2812 8.64043 30.679C7.92179 30.85 7.47622 31.5002 7.04556 32.132C6.66491 32.6804 6.31207 33.1998 5.80001 33.2906C5.51056 33.3397 5.20963 33.2506 4.8795 33.0121C3.90079 32.2978 2.90222 32.01 2.03672 32.1527C1.73428 31.0412 1.45844 29.9123 1.20715 28.7742C0.509316 25.6135 0.0284038 22.4541 -0.250474 19.3145C-0.0109586 19.2803 0.307378 19.2933 0.637598 19.4633C1.4392 19.8747 1.96698 21.0085 2.21579 22.824C2.36689 23.9387 2.65296 24.6319 3.09165 24.9489C3.56493 25.2849 4.18974 25.1538 4.85441 25.0138C5.53437 24.8743 6.23527 24.7263 6.8349 25.0836C7.26804 25.3411 7.66319 25.4092 8.00946 25.2905C8.56109 25.1034 8.81746 24.4914 8.82028 24.487L8.89095 24.3078L9.05866 24.396C9.06752 24.4016 9.88602 24.8207 10.501 24.5245C10.8211 24.3735 11.0409 24.0434 11.151 23.5436C11.6114 21.4452 13.7577 21.5086 13.781 21.5111L13.9456 21.5163L13.9474 21.6794C13.9454 21.7217 14.0013 22.6979 15.7489 23.2453Z" fill="#EBEBEB"/>
<path d="M13.0113 -19.1215L13.1261 -19.2383L13.2463 -19.1243C13.2781 -19.1009 14.0252 -18.472 15.6248 -19.3709C16.6217 -19.9345 17.4449 -19.6153 17.8193 -19.0557C18.16 -18.5458 18.1553 -17.7576 17.4974 -17.2426C16.9683 -16.8324 17.149 -16.2032 17.3422 -15.535C17.5161 -14.9195 17.7021 -14.2839 17.1421 -13.9619C16.3691 -13.5203 15.5035 -13.9631 15.1013 -14.2351L14.9955 -13.664C14.9391 -13.3511 14.9979 -13.0333 15.1429 -12.7727C17.3261 -13.3525 19.5843 -13.7131 21.8945 -13.8381L22.3003 -13.8598L22.0306 -13.5489C21.3179 -12.7138 20.9317 -11.9664 20.8697 -11.3176C20.8281 -10.8862 20.6441 -10.5488 20.3246 -10.3257C19.4926 -9.73793 17.9868 -10.0501 17.5764 -10.1529C15.6508 -8.01036 17.3695 -5.49428 17.4458 -5.38954L17.8018 -4.87915L17.2342 -5.12579C17.2261 -5.12781 16.6307 -5.37969 16.1125 -5.23041C15.998 -5.06049 15.8251 -4.93084 15.5923 -4.84874C15.5032 -4.71868 15.435 -4.56283 15.3921 -4.37838C15.2986 -4.0268 15.3369 -3.75009 15.4977 -3.53861C15.6247 -3.37666 15.8097 -3.26183 16.0084 -3.18807C16.55 -3.30069 17.1399 -3.14265 17.5097 -2.77604C17.7207 -2.56051 18.0269 -2.1037 17.8242 -1.35141C18.5143 -0.808704 19.4576 -0.634054 20.3901 -0.886727C22.3314 -1.40897 23.6848 -0.0134502 24.0032 0.360796C27.0193 -0.32024 28.3689 1.90133 28.5653 2.25702C31.2384 3.89576 30.4736 6.0962 30.2467 6.61811C30.939 7.53296 30.5768 9.0432 29.0888 11.4803C28.0053 13.2533 28.2408 14.1479 28.4307 14.8701C28.5573 15.3401 28.6755 15.7892 28.3218 16.3051C28.0883 16.6421 27.7974 16.8398 27.4419 16.8997C26.8432 16.9946 26.2532 16.6464 26.0236 16.4845L22.9842 18.3001L22.9118 18.2819C22.8385 18.2601 21.0447 17.78 19.523 19.772C17.9667 21.8135 16.1756 21.0704 14.6026 20.4195C14.4433 20.3522 14.292 20.2869 14.1379 20.226C12.5214 19.5848 11.0951 21.2514 11.083 21.2655L10.9992 21.3678L10.8817 21.3178C10.8559 21.3045 8.03178 20.1176 6.49305 20.3451C6.03932 20.4079 5.69087 20.3103 5.45694 20.0428C4.94368 19.457 5.24266 18.2803 5.254 18.2283L5.30212 18.0503L5.47716 18.1027C5.48238 18.1092 6.03604 18.2753 6.3503 18.0458C6.50381 17.9318 6.58055 17.7285 6.58495 17.4385C6.59456 16.5351 4.86584 16.1432 4.19895 16.0668L4.07781 16.0519L4.0506 15.9287C4.0458 15.9069 3.65131 14.0513 2.50927 13.8029C2.28995 13.7565 2.10355 13.7903 1.92989 13.9163C1.31468 14.3495 1.13069 15.6338 1.12584 15.6463L1.01126 16.4703L0.789298 15.6716C0.773664 15.618 0.527557 14.8133 -0.534864 14.3228C-0.708338 5.56566 0.698244 -2.9909 3.47189 -11.003C4.18583 -10.9029 5.04791 -10.4934 6.04485 -9.78312C6.31509 -9.59213 6.56727 -9.43137 6.8034 -9.30886C7.81085 -9.89379 8.84844 -10.4284 9.91253 -10.9118C10.1609 -11.2331 10.4527 -11.4956 10.8565 -11.6119C11.3385 -11.7531 11.6621 -11.9923 11.809 -12.3253C12.0524 -12.8585 11.7827 -13.4603 11.7811 -13.4676L11.7004 -13.6436L11.8776 -13.7019C11.8877 -13.708 12.7551 -14.0146 12.9604 -14.6687C13.0724 -15.0053 12.9795 -15.3916 12.6886 -15.8138C11.4732 -17.5822 12.9911 -19.1094 13.0113 -19.1215Z" fill="#EBEBEB"/>
<path d="M88.2607 72.2797C87.7572 72.65 87.7184 73.1109 87.6852 73.5972C87.6251 74.3404 87.5511 75.2614 85.9423 76.5802C85.1991 77.1899 84.6069 77.7433 84.1645 78.252C84.1254 78.2987 84.0855 78.3417 84.05 78.3876C84.0101 78.4307 83.9718 78.481 83.94 78.5261C83.6034 78.9467 83.3849 79.3335 83.2677 79.6978C83.2463 79.7558 83.2322 79.8121 83.218 79.8685C83.2038 79.9248 83.1897 79.9812 83.1872 80.0388C83.1458 80.2988 83.1632 80.5496 83.2414 80.7831C82.8582 81.1989 81.4109 83.0254 83.3872 85.4527C83.3884 85.4753 83.3956 85.5079 83.4036 85.5441C85.1487 85.2898 86.8975 84.9663 88.6472 84.5779C96.606 82.8114 103.974 79.8153 110.594 75.8257C110.474 75.7613 110.338 75.7153 110.183 75.6851C108.659 75.3923 106.386 73.3389 106.362 73.3175L106.267 73.2322L106.16 73.2977C106.136 73.3106 104.244 74.4111 102.935 73.2686C102.808 73.1598 102.684 73.0467 102.561 72.9335C101.288 71.7982 99.847 70.5063 97.7037 71.9171C95.6099 73.2941 94.0753 72.2473 94.0162 72.2034L93.9535 72.1603L90.484 72.8658C90.3209 72.6435 89.8817 72.1176 89.2879 72.0099C88.9359 71.9474 88.5906 72.0355 88.2607 72.2797Z" fill="#EBEBEB"/>
</g>
<g opacity="0.189737">
<path d="M61.9162 10.5962L61.7475 10.9004C61.6796 10.864 54.8992 7.28351 45.5541 8.05531C43.2505 8.24548 40.9665 8.64995 38.7649 9.25721L38.6699 8.92405C40.8927 8.31048 43.1989 7.90192 45.5248 7.71027C54.9801 6.92881 61.848 10.5594 61.9162 10.5962Z" fill="#3D3F3F"/>
</g>
<g opacity="0.460095">
<path d="M36.2933 10.0366C32.5218 11.3811 30.3591 12.8965 30.3376 12.9117L30.1321 12.6306C30.154 12.615 32.3527 11.0729 36.1739 9.71088L36.2933 10.0366Z" fill="#3D3F3F"/>
</g>
<g opacity="0.313169">
<path d="M66.3491 74.4686C65.3894 75.0339 64.3815 75.5609 63.3544 76.0356L63.2049 75.7214C64.2217 75.2519 65.2188 74.7301 66.1681 74.1707L66.3491 74.4686Z" fill="#3D3F3F"/>
</g>
<g opacity="0.141627">
<path d="M61.9233 76.6551C54.9731 79.4924 48.9848 79.3011 48.925 79.2988L48.9388 78.9523C48.9978 78.9545 54.9138 79.1417 61.7891 76.3353L61.9233 76.6551Z" fill="#3D3F3F"/>
</g>
<path d="M24.5034 19.0351C23.7838 11.7628 24.5264 5.87477 26.9785 3.10402C29.2153 0.578392 32.5428 0.812385 36.4044 3.29344C36.4527 3.32315 36.5046 3.35286 36.5528 3.38629C36.601 3.41972 36.6493 3.44943 36.6975 3.48286C36.8162 3.56086 36.9386 3.64257 37.0573 3.72428C37.1055 3.76142 37.1538 3.79485 37.202 3.82828C37.2465 3.8617 37.291 3.89142 37.3392 3.92856C37.6249 4.13284 37.9179 4.35197 38.211 4.58225C38.2555 4.61567 38.3037 4.65282 38.3483 4.68996C38.3928 4.7271 38.441 4.76424 38.4892 4.8051C38.8565 5.09852 39.2274 5.41422 39.6058 5.74849C39.6503 5.78563 39.6948 5.82649 39.7393 5.86734C39.7801 5.90449 39.8247 5.94534 39.8692 5.9862C40.6 6.6436 41.3419 7.36786 42.0875 8.15526C42.1876 8.25555 42.2804 8.35583 42.3731 8.45982C42.8071 8.91666 43.2374 9.39579 43.6678 9.89349C43.716 9.94549 43.7605 9.99748 43.805 10.0495C43.8532 10.1015 43.8978 10.1572 43.946 10.2129C46.0938 12.7125 48.2899 15.6913 50.4637 19.086C51.8399 21.2291 53.205 23.5356 54.5442 25.9906C54.5739 26.0426 54.6035 26.0946 54.6295 26.1466C54.6592 26.1986 54.6889 26.2543 54.7148 26.3063C55.0301 26.882 55.3417 27.4689 55.6533 28.0631C55.6793 28.1151 55.7053 28.1671 55.735 28.2191C55.7609 28.2711 55.7869 28.3231 55.8166 28.3751C56.2135 29.1402 56.6067 29.9165 56.9962 30.7076C57.0222 30.7559 57.0481 30.8079 57.0704 30.8599C57.0815 30.8785 57.0927 30.897 57.1001 30.9156C57.1149 30.949 57.1335 30.9824 57.1483 31.0159C57.2744 31.2684 57.4005 31.5247 57.523 31.781C57.6194 31.9853 57.7196 32.1858 57.8123 32.3901C57.842 32.4421 57.8642 32.4941 57.8902 32.5461C57.9162 32.5981 57.9384 32.6501 57.9644 32.7021C60.153 37.3039 62.0523 41.9429 63.6363 46.4705C65.3538 51.3806 66.7041 56.157 67.6538 60.5991C68.3586 63.9121 68.8408 67.0394 69.0857 69.9031C69.0931 69.9773 69.0968 70.0516 69.1042 70.1296C69.1079 70.1928 69.1153 70.2559 69.119 70.319C69.1673 70.9207 69.2007 71.5113 69.2266 72.0907C69.2303 72.1501 69.234 72.2095 69.234 72.2653C69.2378 72.3247 69.2378 72.3804 69.2415 72.4361C69.26 72.9561 69.2711 73.4649 69.2711 73.9626V74.1409C69.2711 74.2003 69.2711 74.256 69.2674 74.3118C69.2377 79.0622 68.3512 82.7317 66.5224 84.7968C63.4249 88.2955 58.2278 86.4905 52.4186 80.7707C52.3741 80.7261 52.3333 80.6852 52.2888 80.6407L52.1552 80.507C52.0699 80.4215 51.9846 80.3361 51.8956 80.247C51.851 80.1987 51.8065 80.1541 51.762 80.1058C51.7175 80.065 51.6767 80.0241 51.6396 79.9795C51.4022 79.7381 51.1685 79.4893 50.9311 79.233C50.8309 79.1253 50.7308 79.0176 50.6343 78.9062C50.204 78.4345 49.77 77.9442 49.336 77.4316C49.2877 77.3759 49.2395 77.3165 49.1913 77.2608" stroke="black" stroke-miterlimit="10"/>
<path d="M17.4983 27.8614C6.62554 29.2282 0.30074 32.9795 1.76972 38.3056C2.77872 41.9677 7.3081 45.7822 14.0743 49.2029V49.2066C23.3148 53.8827 36.736 57.8235 51.0772 59.6211C61.731 60.9582 71.1607 60.8988 78.272 59.7065C87.7462 58.1243 93.0991 54.5364 91.734 49.5929C90.8733 46.4767 87.4568 43.2417 82.2783 40.2332" stroke="black" stroke-miterlimit="10"/>
<path d="M18.5748 60.4173C18.5451 60.4916 18.5117 60.5622 18.4821 60.6328C18.4561 60.6959 18.4301 60.7553 18.4042 60.8148C17.3136 63.3515 16.49 65.7174 15.9521 67.8679C15.9336 67.9237 15.9225 67.9831 15.9076 68.0388C15.8928 68.0945 15.8817 68.1502 15.8668 68.2059C15.6999 68.9042 15.5589 69.5839 15.4514 70.2339C15.4439 70.2933 15.4328 70.349 15.4254 70.4084C15.418 70.4641 15.4068 70.5236 15.3994 70.5793C15.3067 71.2107 15.2399 71.8198 15.2065 72.3992C15.2028 72.4586 15.2028 72.5143 15.1954 72.5738C15.1954 72.6332 15.1917 72.6889 15.1917 72.7446C15.1731 73.2906 15.1806 73.8069 15.2177 74.2971C15.2214 74.3566 15.2251 74.416 15.2325 74.4717C15.2362 74.5274 15.2399 74.5831 15.2473 74.6388C15.5478 77.547 16.8944 79.4858 19.3798 80.1321C23.0485 81.0866 28.6092 79.0735 34.9488 74.9211C35.0044 74.884 35.0601 74.8468 35.1157 74.8097C35.1788 74.7725 35.2381 74.7317 35.3012 74.6871C37.7866 73.038 40.387 71.0658 43.0393 68.815C46.1665 66.1631 49.3641 63.1287 52.5173 59.7934C55.9301 56.1906 59.2946 52.2351 62.4737 48.0344C62.8707 47.5107 63.2564 46.9907 63.6385 46.4707C64.9777 44.6471 66.2352 42.842 67.4 41.0703C67.4334 41.022 67.4668 40.97 67.4965 40.9218C67.5299 40.8735 67.5595 40.8289 67.5892 40.7806C67.8081 40.4501 68.0195 40.1232 68.2273 39.7964C68.2569 39.7481 68.2866 39.7035 68.3163 39.6552V39.6515C68.3497 39.6032 68.3794 39.5587 68.4127 39.5067C69.3661 38.0099 70.2527 36.5353 71.0762 35.0905C73.2166 31.3355 74.9082 27.7922 76.1138 24.5721C76.1435 24.5015 76.1694 24.4272 76.1954 24.3566C76.2176 24.2935 76.2436 24.2341 76.2659 24.1709C76.4105 23.7772 76.5478 23.3872 76.6776 23.001C76.6962 22.9453 76.7147 22.8858 76.7333 22.8264C76.7592 22.7558 76.7815 22.6853 76.8038 22.6147C76.8334 22.5293 76.8594 22.4439 76.8854 22.3584C76.9113 22.2879 76.9336 22.2173 76.9559 22.1467C76.9744 22.0873 76.9929 22.0279 77.0078 21.9684C77.1413 21.545 77.2637 21.129 77.3713 20.7242C77.3899 20.6685 77.4047 20.6128 77.4158 20.5571C77.4344 20.5013 77.4492 20.4456 77.4604 20.3899C77.5976 19.8811 77.7163 19.3834 77.8202 18.8968C77.8313 18.8411 77.8424 18.7854 77.8536 18.726C77.8684 18.6703 77.8795 18.6146 77.8907 18.5551C78.5324 15.3238 78.4693 12.6645 77.6384 10.7666C77.6199 10.7146 77.5939 10.6626 77.5679 10.6106C77.5457 10.5586 77.5197 10.5066 77.4937 10.4546C77.171 9.81573 76.7555 9.27718 76.2399 8.83891C76.1954 8.80177 76.1509 8.76463 76.1027 8.72748C76.0581 8.69034 76.0136 8.65691 75.9654 8.62349C75.4423 8.23722 74.8303 7.95122 74.1255 7.76923C70.8054 6.90383 65.931 8.47492 60.3296 11.8659C60.2703 11.8994 60.2109 11.9328 60.1515 11.9737C60.0848 12.0108 60.018 12.0516 59.9512 12.0962" stroke="black" stroke-miterlimit="10"/>
</svg>
