<svg width="110" height="111" viewBox="0 0 110 111" fill="none" xmlns="http://www.w3.org/2000/svg">
<rect opacity="0.1" width="110" height="110" rx="54.9999" transform="matrix(1 0 -1.68587e-06 1 0.00115967 0.0498047)" fill="#15A601"/>
<path d="M55.0005 9.84082C80.6638 9.84082 101.5 30.6775 101.5 56.3408C101.5 82.0042 80.6638 102.841 55.0005 102.841C29.3371 102.841 8.50049 82.0042 8.50049 56.3408C8.50049 30.6775 29.3371 9.84082 55.0005 9.84082Z" fill="#F5C323"/>
<path d="M73.7616 55.5829C73.6071 54.9304 73.1311 54.4068 72.5025 54.1848L59.4846 49.5904L66.7043 29.1337C67.0141 28.256 66.6682 27.2806 65.8734 26.7951C65.0648 26.3007 64.0507 26.4488 63.4113 27.1224L36.7196 55.3461C36.2609 55.8283 36.0804 56.5176 36.2374 57.1628C36.3931 57.8118 36.868 58.339 37.4964 58.5608L50.5143 63.1553L43.2945 83.612C42.9847 84.4897 43.3307 85.465 44.1256 85.9505C44.2465 86.0227 44.3712 86.0835 44.4978 86.1281C45.2193 86.3827 46.0409 86.1998 46.5874 85.6231L73.2793 57.3995C73.7355 56.9122 73.9211 56.2332 73.7616 55.5829Z" fill="white"/>
</svg>
